<?xml version="1.0" encoding="UTF-8"?>
<svg version="1.1" xmlns="http://www.w3.org/2000/svg" width="896" height="1024">
<path d="M0 0 C294.36 0 588.72 0 892 0 C892 410 892 410 890 424 C889.775754 426.41353429 889.5775669 428.83012081 889.4375 431.25 C888.46739792 446.39720795 888.46739792 446.39720795 887 452 C885.507241 458.61931989 884.08221326 465.22742254 883.0625 471.9375 C882.01858683 478.44254568 880.30243984 484.72192588 878.53662109 491.06347656 C877.64920471 494.26592731 876.79436098 497.47673357 875.9375 500.6875 C875.60621094 501.92113281 875.27492188 503.15476562 874.93359375 504.42578125 C874.06997484 507.73210468 873.2800448 511.04821435 872.5 514.375 C871.43592594 518.68278371 870.0040388 522.47086359 868.09765625 526.46484375 C866.69739781 529.69889261 865.63637408 533.02274326 864.5625 536.375 C862.77225981 541.92288335 860.67470474 547.19976948 858.1796875 552.46875 C857.05109125 554.89037374 856.03923361 557.32626899 855.0625 559.8125 C853.37596997 564.08045355 851.64806486 568.32979749 849.875 572.5625 C849.12863281 574.35880859 849.12863281 574.35880859 848.3671875 576.19140625 C847 579 847 579 845 580 C844.7525 580.969375 844.505 581.93875 844.25 582.9375 C843.12655059 587.26322253 840.92460033 590.69349778 838.57421875 594.4609375 C837.13991091 596.77433724 835.80398661 599.11146789 834.5 601.5 C826.11196096 616.68843661 816.18406148 630.93943976 806.27490234 645.1640625 C805.38592088 646.44425028 804.50676528 647.73129326 803.63525391 649.0234375 C802.47316815 650.71745493 801.24200499 652.36367424 800 654 C799.34 654 798.68 654 798 654 C797.7525 654.54140625 797.505 655.0828125 797.25 655.640625 C795.72011396 658.5282849 793.90849003 661.09776018 792 663.75 C791.29875 664.73484375 790.5975 665.7196875 789.875 666.734375 C789.25625 667.48203125 788.6375 668.2296875 788 669 C787.34 669 786.68 669 786 669 C785.60554687 669.85271484 785.60554687 669.85271484 785.203125 670.72265625 C781.71804202 677.31942047 776.7606915 682.3914468 771 687 C770.2575 687.928125 769.515 688.85625 768.75 689.8125 C768.1725 690.534375 767.595 691.25625 767 692 C766.34 692 765.68 692 765 692 C764.75894531 692.56847656 764.51789062 693.13695312 764.26953125 693.72265625 C762.75031912 696.44788908 760.92581019 698.26690339 758.6875 700.4375 C757.88054688 701.22511719 757.07359375 702.01273438 756.2421875 702.82421875 C755.50226562 703.54222656 754.76234375 704.26023437 754 705 C753.113125 705.9075 752.22625 706.815 751.3125 707.75 C748.66352183 710.32738416 745.83871317 712.63440569 743 715 C742.113125 715.928125 741.22625 716.85625 740.3125 717.8125 C738 720 738 720 735 720 C735 720.66 735 721.32 735 722 C733.41005885 723.45917963 731.75012428 724.84249355 730.0625 726.1875 C729.05574219 726.991875 728.04898438 727.79625 727.01171875 728.625 C726.01785156 729.40875 725.02398438 730.1925 724 731 C723.20207031 731.639375 722.40414062 732.27875 721.58203125 732.9375 C717.12466704 736.47183481 712.55564093 739.69304004 707.75 742.73828125 C705.85850399 743.89634475 705.85850399 743.89634475 705 746 C703.35572675 747.03640883 701.68291727 748.02759719 700 749 C698.83543854 749.74708351 697.67552877 750.5014511 696.51953125 751.26171875 C695.91302734 751.65810547 695.30652344 752.05449219 694.68164062 752.46289062 C693.42197257 753.28819038 692.16419351 754.11637968 690.90820312 754.94726562 C686.22132851 758 686.22132851 758 684 758 C684 758.66 684 759.32 684 760 C678.25 763 678.25 763 676 763 C676 763.66 676 764.32 676 765 C674.85724609 765.56267578 674.85724609 765.56267578 673.69140625 766.13671875 C666.65090565 769.62341419 666.65090565 769.62341419 659.75 773.375 C653.6112076 776.83990823 647.26488834 779.90199075 640.94970703 783.02880859 C639.1786343 783.91101837 637.41503939 784.80820045 635.65234375 785.70703125 C630.34211519 788.41353484 625.04613017 790.87143502 619.48046875 793.00390625 C616.84387522 794.06269578 614.31085248 795.27004311 611.75 796.5 C606.40316477 798.97947124 600.96036916 800.53928913 595.26171875 802.0078125 C591.93842497 803.01873061 589.07723919 804.40423168 586 806 C584.34385343 806.38218767 582.67542976 806.71395102 581 807 C578.66317204 807.65431183 576.33030877 808.32283685 574 809 C569.33333333 810.33333333 564.66666667 811.66666667 560 813 C558.29457031 813.49693359 558.29457031 813.49693359 556.5546875 814.00390625 C545.45249746 817.1149595 534.21144755 819.43722177 522.84765625 821.34765625 C519.74043678 821.87446402 516.65409833 822.45362033 513.5625 823.0625 C484.82291408 828.32776765 455.19358005 828.43188073 426.125 827.125 C423.8398796 827.03167005 421.55472309 826.93922033 419.26953125 826.84765625 C417.0572585 826.75600544 414.84501741 826.6635864 412.6328125 826.5703125 C411.63887482 826.52858917 410.64493713 826.48686584 409.62088013 826.44387817 C400.10933771 826.01424451 390.7163025 825.5081122 381.3984375 823.47265625 C378.91260757 822.98277771 376.45796716 822.68795652 373.9375 822.4375 C370 822 370 822 369 821 C367.62790336 820.86279034 366.25164591 820.76700925 364.875 820.6875 C358.98147567 820.16325537 353.47728085 818.63996218 347.80859375 817.03515625 C345.12173128 816.30488081 342.48699538 815.65907302 339.76953125 815.08203125 C334.18418691 813.86679248 328.72860032 812.24693978 323.25 810.625 C322.19031006 810.31336914 321.13062012 810.00173828 320.03881836 809.68066406 C312.67501376 807.50975641 305.31866562 805.3192184 298 803 C297.18917969 802.74734375 296.37835938 802.4946875 295.54296875 802.234375 C290.96670331 800.7687227 286.65132816 798.98649968 282.28515625 796.984375 C278.60894612 795.40077679 274.8182713 794.19151728 271 793 C271 792.34 271 791.68 271 791 C270.08468506 790.75237915 270.08468506 790.75237915 269.15087891 790.49975586 C262.90182939 788.7289325 257.19808044 786.42153703 251.375 783.5625 C250.18390625 782.98918945 250.18390625 782.98918945 248.96875 782.40429688 C243.95531349 779.98387548 238.97476129 777.49876454 234 775 C234 774.34 234 773.68 234 773 C232.68 773 231.36 773 230 773 C230 772.34 230 771.68 230 771 C229.154375 770.7525 228.30875 770.505 227.4375 770.25 C223.67088384 768.8803214 220.42143473 767.04405568 217 765 C215.5459375 764.17048828 215.5459375 764.17048828 214.0625 763.32421875 C213.010625 762.72222656 211.95875 762.12023437 210.875 761.5 C209.88242188 760.9328125 208.88984375 760.365625 207.8671875 759.78125 C205 758 205 758 202.3203125 755.84375 C200.05595922 753.8283125 200.05595922 753.8283125 197 753 C195.97947762 752.02095247 194.9812303 751.01842383 194 750 C192.74121376 749.04739133 191.46069672 748.12307048 190.1640625 747.22265625 C189.06191406 746.45211914 189.06191406 746.45211914 187.9375 745.66601562 C187.174375 745.13685547 186.41125 744.60769531 185.625 744.0625 C180.97283869 740.82742196 176.38684618 737.59274221 172 734 C170.60966325 732.93031749 169.21424051 731.8671945 167.8125 730.8125 C167.13832031 730.30332031 166.46414062 729.79414062 165.76953125 729.26953125 C164.02184372 727.94507945 164.02184372 727.94507945 162 727 C162 726.34 162 725.68 162 725 C161.34 725 160.68 725 160 725 C158.64264858 723.69112542 157.31494512 722.35147138 156 721 C155.030625 720.195625 154.06125 719.39125 153.0625 718.5625 C150.19948183 716.16691336 147.63766749 713.63766749 145 711 C142.87193426 709.16628354 140.73192438 707.349534 138.57421875 705.55078125 C138.05472656 705.03902344 137.53523437 704.52726563 137 704 C137 703.34 137 702.68 137 702 C136.46375 701.773125 135.9275 701.54625 135.375 701.3125 C129.68232088 698.16654575 126.17304333 694.09848622 122.4296875 688.91015625 C120.51109294 686.34678811 118.31796024 684.20488901 116 682 C114.72340468 680.77681871 113.45282553 679.54733576 112.1875 678.3125 C111.58292969 677.73113281 110.97835937 677.14976562 110.35546875 676.55078125 C109 675 109 675 109 673 C108.34 673 107.68 673 107 673 C106.05193174 671.6117572 105.11185162 670.2171952 104.21875 668.79296875 C102.43119932 666.16320669 100.30901253 663.86436031 98.171875 661.515625 C97 660 97 660 97 658 C96.01 657.67 95.02 657.34 94 657 C92.23828125 654.91796875 92.23828125 654.91796875 90.3125 652.1875 C89.61253906 651.19878906 88.91257812 650.21007812 88.19140625 649.19140625 C85.36165469 645.07035986 82.59051956 640.91356511 79.859375 636.7265625 C78.02479609 633.95302836 78.02479609 633.95302836 75.828125 631.3359375 C74 629 74 629 73 626 C72.34 625.67 71.68 625.34 71 625 C70.08410218 623.13428222 69.17157518 621.26682377 68.27734375 619.390625 C66.37127705 615.82330751 63.98821391 612.641276 61.5859375 609.39453125 C59.98704023 606.98043266 59.03120424 604.69634553 58 602 C56.72148125 599.63280317 55.37580319 597.3138812 54.0234375 594.98828125 C53 593 53 593 53 591 C52.34 591 51.68 591 51 591 C49.04281143 586.85215113 47.08856128 582.70298356 45.140625 578.55078125 C43.93390614 575.97937114 42.71770233 573.4143051 41.484375 570.85546875 C33.8198477 554.75555652 27.37109916 537.99481375 22 521 C20.93771004 517.86010213 19.86877569 514.72256493 18.796875 511.5859375 C17.68987419 507.99361133 17 504.76427339 17 501 C16.34 500.67 15.68 500.34 15 500 C14.4375 498.14575195 14.4375 498.14575195 14 495.73828125 C13.835 494.86623047 13.67 493.99417969 13.5 493.09570312 C13.335 492.17724609 13.17 491.25878906 13 490.3125 C12.67036459 488.51624453 12.33711369 486.72064826 12 484.92578125 C11.855625 484.12567627 11.71125 483.32557129 11.5625 482.5012207 C11.02837713 479.91213432 11.02837713 479.91213432 10.01586914 477.1394043 C8.90669815 473.71166343 8.30381552 470.40234611 7.74609375 466.84375 C7.64031509 466.17839233 7.53453644 465.51303467 7.42555237 464.82751465 C7.09141966 462.71906413 6.76430169 460.6095979 6.4375 458.5 C6.21466637 457.08456077 5.99136316 455.66919538 5.76757812 454.25390625 C5.3557023 451.64692012 4.94709657 449.03950581 4.54077148 446.43164062 C4.04489839 443.28491728 3.52370195 440.14221168 3 437 C-11.03155501 292.00726487 0 145.67009912 0 0 Z " fill="#D72034" transform="translate(2,193)"/>
<path d="M0 0 C49.22464715 -0.0440996 98.44927566 -0.08102461 147.67393692 -0.10213066 C153.48672621 -0.10463204 159.29951546 -0.10722069 165.11230469 -0.10986328 C166.26951549 -0.1103879 167.4267263 -0.11091252 168.6190041 -0.11145304 C187.35089751 -0.12015319 206.08277863 -0.13592103 224.81466475 -0.15430559 C244.03849289 -0.17301548 263.26231459 -0.18411903 282.48615146 -0.18817699 C294.34612727 -0.19091978 306.20606834 -0.19957955 318.06603345 -0.21583293 C326.20131364 -0.22641324 334.3365759 -0.22959825 342.47186247 -0.22700275 C347.16389029 -0.2257231 351.85585744 -0.22767059 356.54787445 -0.23841095 C360.84891737 -0.24818417 365.14985915 -0.2486086 369.45090684 -0.24179779 C371.00158319 -0.24095671 372.55226599 -0.24345914 374.10292974 -0.24976636 C391.66772544 -0.31701828 405.17899909 2.41141326 420 12 C420.639375 12.40089844 421.27875 12.80179688 421.9375 13.21484375 C428.69100302 17.69205446 433.87847548 24.07583881 438 31 C438 31.66 438 32.32 438 33 C438.66 33 439.32 33 440 33 C445.37129841 45.48519362 445.37129841 45.48519362 447 52 C447.20753906 51.20078125 447.41507812 50.4015625 447.62890625 49.578125 C450.79609883 38.28754727 455.75549479 28.43623789 464 20 C464.66 20 465.32 20 466 20 C466.24492187 19.40832031 466.48984375 18.81664063 466.7421875 18.20703125 C470.52065065 11.57711921 479.21461213 8.21000167 485.9375 5.1875 C486.88423584 4.75280396 486.88423584 4.75280396 487.85009766 4.30932617 C498.48472667 -0.26434567 509.58403753 -0.28844849 520.97012329 -0.24723816 C522.57107822 -0.24882879 524.17203247 -0.25129489 525.77298486 -0.25455457 C530.14724202 -0.26093553 534.52140585 -0.25492536 538.89565682 -0.24679029 C543.62218271 -0.2401882 548.3486986 -0.24516707 553.07522583 -0.24867249 C562.32179149 -0.25370375 571.56832127 -0.24808726 580.81488247 -0.23882218 C591.57855098 -0.22842513 602.34221178 -0.22850868 613.10588436 -0.22899476 C632.30122865 -0.22949491 651.49655626 -0.22034449 670.69189453 -0.20581055 C689.33187158 -0.19170436 707.97183395 -0.18464065 726.61181641 -0.18530273 C727.76134134 -0.18534269 728.91086627 -0.18538265 730.09522529 -0.18542381 C731.81649651 -0.18548435 731.81649651 -0.18548435 733.57254088 -0.1855461 C754.78639799 -0.18623499 776.00024885 -0.18035392 797.21410394 -0.17139288 C804.7243567 -0.16837164 812.23460831 -0.16731277 819.7448616 -0.16686058 C828.88414048 -0.16618013 838.02340881 -0.16173865 847.1626832 -0.15252777 C851.82910125 -0.14789593 856.49550577 -0.14486939 861.16192627 -0.14612198 C865.42615973 -0.14721118 869.69036317 -0.14373475 873.95459037 -0.13647345 C875.50406617 -0.13464941 877.05354504 -0.13454013 878.60302098 -0.13624074 C880.69517492 -0.13828419 882.78722842 -0.13428066 884.87937355 -0.12863445 C886.62872434 -0.12757782 886.62872434 -0.12757782 888.41341555 -0.12649983 C891 -0 891 -0 892 1 C892 43.24 892 85.48 892 129 C597.64 129 303.28 129 0 129 C0 86.43 0 43.86 0 0 Z " fill="#D72034" transform="translate(2,3)"/>
<path d="M0 0 C-10.31992448 6.04830739 -20.6976934 11.99207721 -31.1015625 17.89453125 C-39.88333325 22.88476714 -48.59787876 27.92675748 -57.16796875 33.2734375 C-60.76322959 35.46530687 -64.44301899 37.46627134 -68.15234375 39.45703125 C-80.25613413 46.01532645 -92.09171417 53.09535339 -104 60 C-122.11795437 70.50512845 -122.11795437 70.50512845 -130 75 C-146.15970979 84.08993042 -146.15970979 84.08993042 -161.9375 93.8125 C-166.48462935 96.76883797 -171.20080882 99.15700818 -176.07421875 101.52734375 C-181.59234925 104.30482733 -186.83344204 107.52489671 -191.9375 111 C-194.52547892 112.69010868 -197.09389585 114.16364822 -199.8125 115.625 C-201.87671254 116.74685464 -203.93898793 117.87227641 -206 119 C-206.639375 119.34804688 -207.27875 119.69609375 -207.9375 120.0546875 C-222.53304067 128.07117764 -235.29557971 137.24068109 -245 151 C-245.52851562 151.73734375 -246.05703125 152.4746875 -246.6015625 153.234375 C-249.87626517 157.97009886 -252.65725939 162.91099275 -255.37109375 167.984375 C-257.17836407 171.33020877 -259.04755081 174.63797498 -260.9375 177.9375 C-261.45207764 178.835896 -261.45207764 178.835896 -261.97705078 179.75244141 C-264.6133432 184.34449205 -267.28537507 188.91514966 -269.9609375 193.484375 C-273.16363319 198.98315714 -276.29012026 204.52613519 -279.4362793 210.05737305 C-283.22838565 216.70325269 -287.14131681 223.26246858 -291.16015625 229.7734375 C-293.07093737 233.12440397 -294.54982557 236.4310349 -296 240 C-296.66 240 -297.32 240 -298 240 C-298.12366943 240.58539551 -298.24733887 241.17079102 -298.37475586 241.77392578 C-299.00264959 244.00943342 -299.80962865 245.6349466 -301.00390625 247.6171875 C-301.4107666 248.29942383 -301.81762695 248.98166016 -302.23681641 249.68457031 C-302.67429199 250.40741211 -303.11176758 251.13025391 -303.5625 251.875 C-304.47865975 253.40837935 -305.39401366 254.94224044 -306.30859375 256.4765625 C-306.76476074 257.24000977 -307.22092773 258.00345703 -307.69091797 258.79003906 C-309.54497112 261.92000719 -311.33505509 265.08290066 -313.125 268.25 C-315.70367431 272.78867475 -318.36825251 277.25477535 -321.125 281.6875 C-324.06515741 286.4237847 -326.80849652 291.21872731 -329.4453125 296.12890625 C-333.78728234 304.14736813 -338.35685104 312.01732275 -343.1875 319.75 C-345.92826416 324.15859352 -348.33685371 328.58355209 -350.58203125 333.2578125 C-352.78045851 337.50931647 -355.28653407 341.57089338 -357.79077148 345.64794922 C-360.05612553 349.35149043 -362.11362132 353.08306083 -364 357 C-364.99 356.67 -365.98 356.34 -367 356 C-368.1875 352.4375 -368.1875 352.4375 -369 349 C-369.66 349 -370.32 349 -371 349 C-371.37511719 348.2265625 -371.75023437 347.453125 -372.13671875 346.65625 C-374.77987637 341.27672517 -377.47565714 336.06719833 -380.73046875 331.03515625 C-382.74773942 327.80131619 -384.51309519 324.43697186 -386.3046875 321.07421875 C-387.55624724 318.80468531 -388.84013596 316.60034707 -390.1953125 314.39453125 C-390.75255005 313.47148193 -390.75255005 313.47148193 -391.32104492 312.52978516 C-392.04986476 311.32714477 -392.7917304 310.13228726 -393.5480957 308.94677734 C-396.03868055 304.79359623 -396.12931139 302.62743986 -395 298 C-393.76000977 295.29370117 -393.76000977 295.29370117 -392.19140625 292.54296875 C-391.61463135 291.52211182 -391.03785645 290.50125488 -390.44360352 289.44946289 C-389.82283936 288.37301514 -389.2020752 287.29656738 -388.5625 286.1875 C-387.9243335 285.06529053 -387.28616699 283.94308105 -386.62866211 282.78686523 C-382.37740445 275.33179221 -378.05449031 267.9198377 -373.67578125 260.5390625 C-370.31854576 254.86671457 -367.03834602 249.14995795 -363.75 243.4375 C-358.88233166 234.98328959 -353.98945731 226.54478671 -349.0625 218.125 C-343.33125077 208.32400376 -337.68423364 198.47616689 -332.06005859 188.61352539 C-327.29058768 180.2507916 -322.49855302 171.90138159 -317.6875 163.5625 C-317.0591626 162.47275879 -316.4308252 161.38301758 -315.78344727 160.26025391 C-313.22020741 155.82041307 -310.64726238 151.39042528 -308 147 C-308.59200195 147.28609131 -309.18400391 147.57218262 -309.79394531 147.86694336 C-321.92547982 153.72116844 -334.09899529 159.44503886 -346.3984375 164.9375 C-357.15714072 169.74505725 -367.84131571 174.72507296 -378.28125 180.1953125 C-383.69449301 183 -383.69449301 183 -387 183 C-387.53367187 182.04222656 -388.06734375 181.08445312 -388.6171875 180.09765625 C-393.2071353 171.88740925 -397.874518 163.73435186 -402.72412109 155.67407227 C-404.79871424 152.19282624 -406.63650613 148.83715489 -408 145 C-400.06640834 141.77011881 -392.17397951 138.58125669 -384 136 C-385.44335935 130.65957039 -388.0341949 126.16021371 -390.7578125 121.390625 C-392 119 -392 119 -392 117 C-388.41685685 116.02013647 -384.83345277 115.04123054 -381.25 114.0625 C-380.23421875 113.78470703 -379.2184375 113.50691406 -378.171875 113.22070312 C-377.1921875 112.95322266 -376.2125 112.68574219 -375.203125 112.41015625 C-374.30239258 112.16402588 -373.40166016 111.91789551 -372.47363281 111.66430664 C-370.32080722 111.08615441 -368.16454738 110.53230196 -366 110 C-369.42294451 103.64985022 -369.42294451 103.64985022 -373.375 97.625 C-373.91125 96.75875 -374.4475 95.8925 -375 95 C-374.505 93.515 -374.505 93.515 -374 92 C-371.40969692 91.13079531 -368.95727908 90.46884615 -366.30078125 89.87890625 C-365.51414597 89.69287338 -364.72751068 89.50684052 -363.91703796 89.31517029 C-361.38488516 88.71864654 -358.84907478 88.13990231 -356.3125 87.5625 C-353.01569869 86.79818744 -349.72057436 86.02682467 -346.42578125 85.25390625 C-345.21359924 84.9713372 -345.21359924 84.9713372 -343.97692871 84.68305969 C-337.93524772 83.26062918 -331.98939647 81.62055305 -326.03295898 79.87329102 C-321.84377926 78.66708512 -317.62123901 77.66818469 -313.375 76.6875 C-305.40020383 74.8299275 -297.45227898 72.8773182 -289.51171875 70.87890625 C-278.61749418 68.14637355 -267.71589903 65.44541726 -256.80859375 62.765625 C-255.3122775 62.39784764 -253.81596507 62.03005476 -252.31965637 61.6622467 C-250.03356448 61.1003312 -247.74746907 60.53843006 -245.46136189 59.97657681 C-221.60528622 54.1132571 -197.75818538 48.22823563 -173.97335815 42.08081055 C-163.00504056 39.24761204 -152.02083794 36.55422037 -140.9675293 34.06787109 C-129.89096137 31.56255482 -118.92252581 28.65307318 -107.94042969 25.76660156 C-102.84668712 24.43860823 -97.73727514 23.17627585 -92.625 21.921875 C-89.71706429 21.18235687 -86.83677161 20.39114838 -83.94921875 19.578125 C-76.09035717 17.42173824 -68.1020582 15.8710684 -60.11914062 14.25 C-53.79971816 12.93331078 -48.00014066 11.35390134 -42 9 C-39.78234113 8.50747647 -37.5517908 8.06981794 -35.3125 7.6875 C-26.0802864 5.94715328 -17.14207923 3.29291602 -8.14379883 0.61669922 C-7.43634521 0.41318848 -6.7288916 0.20967773 -6 0 C-5.28932373 -0.21253418 -4.57864746 -0.42506836 -3.84643555 -0.64404297 C-2 -1 -2 -1 0 0 Z " fill="#FEFDFD" transform="translate(829,322)"/>
<path d="M0 0 C6.91384684 2.45330049 13.13841162 6.48831236 19.4375 10.1875 C25.45725221 13.72032755 31.55669624 17.1007103 37.68139648 20.44799805 C41.93256294 22.78728653 45.96418677 25.30006349 50 28 C51.77439165 28.94967441 53.56524672 29.86957948 55.375 30.75 C56.24898438 31.17796875 57.12296875 31.6059375 58.0234375 32.046875 C59.00183594 32.51867187 59.00183594 32.51867187 60 33 C60 33.66 60 34.32 60 35 C60.58700684 35.12818115 61.17401367 35.2563623 61.77880859 35.38842773 C65.33644133 36.36796939 68.43051143 38.2588828 71.625 40.0625 C72.33269531 40.46154541 73.04039062 40.86059082 73.76953125 41.27172852 C79.57915303 44.62032996 85.23798966 48.22654252 90 53 C90 53.66 90 54.32 90 55 C90.56460938 55.22558594 91.12921875 55.45117188 91.7109375 55.68359375 C101.28360822 61.18869619 107.29759765 74.095867 112.53515625 83.40771484 C114.75622986 87.33827478 117.0235378 91.24184153 119.28515625 95.14916992 C121.215046 98.48511512 123.13951689 101.82413179 125.0625 105.1640625 C127.66373521 109.68138614 130.26775551 114.1970795 132.875 118.7109375 C138.62667178 128.66959247 144.3687613 138.63309348 150.0625 148.625 C157.99669718 162.54100028 166.0786254 176.37201487 174.22949219 190.16210938 C177.67692851 195.99704771 181.04641482 201.85110439 184.2578125 207.8203125 C190.67101588 219.52512763 197.41125017 231.05549856 204.20776367 242.54101562 C208.07246219 249.0866034 211.82890127 255.69253209 215.58300781 262.30200195 C219.08687188 268.45316657 222.67996803 274.54235691 226.41040039 280.55908203 C229 284.78756896 229 284.78756896 229 287 C229.66 287 230.32 287 231 287 C231.26554688 286.29456055 231.53109375 285.58912109 231.8046875 284.86230469 C233.06516164 281.84396343 234.53540003 279.0616324 236.125 276.203125 C236.74455566 275.08728027 237.36411133 273.97143555 238.00244141 272.82177734 C238.66809103 271.63107125 239.3339479 270.440481 240 269.25 C240.68019438 268.02947 241.36037006 266.80892958 242.04052734 265.58837891 C246.53348925 257.54218843 251.12448601 249.55948908 255.8515625 241.6484375 C257.40760473 239.0335162 258.90160296 236.39106599 260.37109375 233.7265625 C263.29750777 228.42777522 266.37022394 223.21808879 269.4375 218 C274.47243183 209.4070229 279.40455577 200.76366654 284.25 192.0625 C288.44816914 184.52639512 292.69276523 177.02897203 297.09594727 169.61083984 C301.65391645 161.92557934 306.10292517 154.17773971 310.56030273 146.43383789 C314.16306583 140.17655934 317.78549077 133.9316865 321.43896484 127.70385742 C322.9812331 125.03250601 324.46922197 122.3376127 325.9375 119.625 C332.85934375 106.84760174 340.25814679 94.32799077 347.61328125 81.796875 C349.60163201 78.40772811 351.56615227 75.00958352 353.48046875 71.578125 C358.57019781 62.56196874 364.64733439 55.27226609 372 48 C372.71542969 47.26265625 373.43085937 46.5253125 374.16796875 45.765625 C380.48945696 39.65200004 388.11205846 35.55844473 395.72753906 31.28320312 C398.02608103 29.98527268 400.30702366 28.66017306 402.5859375 27.328125 C404.03610614 26.48897439 405.48661426 25.65041013 406.9375 24.8125 C407.95759155 24.21417358 407.95759155 24.21417358 408.99829102 23.60375977 C410.63165898 22.67366781 412.31248343 21.82779816 414 21 C414.66 21.33 415.32 21.66 416 22 C415.68289063 22.45246094 415.36578125 22.90492188 415.0390625 23.37109375 C407.89743349 33.80734166 401.61538213 44.8623298 395.625 55.9921875 C389.97218783 66.45532542 384.21868848 76.86122136 378 87 C374.69137314 92.45200467 371.45638862 97.92594354 368.37890625 103.51171875 C362.59117378 113.95587054 356.5246824 124.24140578 350.49316406 134.5456543 C345.81286413 142.56076124 341.247402 150.63611715 336.71118164 158.73339844 C332.76424625 165.74178179 328.6392784 172.62316907 324.3371582 179.41943359 C323.69846802 180.439646 323.69846802 180.439646 323.046875 181.48046875 C322.67401367 182.06723389 322.30115234 182.65399902 321.91699219 183.25854492 C320.92202862 185.14807505 320.43561783 186.91595169 320 189 C319.34 189 318.68 189 318 189 C318 189.99 318 190.98 318 192 C317.34 192 316.68 192 316 192 C315.90074219 192.54527344 315.80148437 193.09054687 315.69921875 193.65234375 C314.81878595 196.60843376 313.40564299 198.92132917 311.8125 201.5625 C309.52720115 205.40217216 307.29582436 209.24794535 305.1875 213.1875 C302.20059571 218.71526421 299.015117 224.11606684 295.81762695 229.5234375 C292.47819562 235.17410848 289.19997236 240.85598042 285.95703125 246.5625 C284.56649988 249.0049503 283.16892897 251.44221642 281.76171875 253.875 C281.20991943 254.83176636 281.20991943 254.83176636 280.64697266 255.80786133 C279.62162714 257.58501917 278.59408363 259.36090833 277.56640625 261.13671875 C275.91906269 263.94633502 275.91906269 263.94633502 275 267 C274.34 267 273.68 267 273 267 C273 267.99 273 268.98 273 270 C272.34 270 271.68 270 271 270 C270.89042969 270.56589844 270.78085937 271.13179687 270.66796875 271.71484375 C269.90279504 274.33254327 268.76189214 276.25336344 267.3125 278.5625 C263.47859903 284.80288296 260.01320076 291.22112317 256.5703125 297.68359375 C253.99936801 302.4711093 251.32114096 307.1434289 248.4375 311.75 C242.89553168 320.65937384 237.83684334 329.84292037 232.69775391 338.98828125 C229.96444314 343.8370189 227.20218968 348.66910478 224.4375 353.5 C223.94926758 354.35335938 223.46103516 355.20671875 222.95800781 356.0859375 C222.05406406 357.66547354 221.14994255 359.24490787 220.24560547 360.82421875 C218.49520969 363.88175054 216.74751493 366.94082092 215 370 C214.34 370 213.68 370 213 370 C212.70867187 369.46632813 212.41734375 368.93265625 212.1171875 368.3828125 C209.84187669 364.24718468 207.51299372 360.15958597 205.0625 356.125 C203.03417323 352.77184207 201.10415043 349.38987588 199.25 345.9375 C196.24577646 340.36946265 193.0434994 334.92982151 189.82226562 329.48583984 C187.09133345 324.86686847 184.39970663 320.22851211 181.75 315.5625 C179.50573738 311.61476093 177.2310549 307.69449719 174.875 303.8125 C166 289.11023352 166 289.11023352 166 286 C165.34 286 164.68 286 164 286 C163.38125 284.453125 163.38125 284.453125 162.75 282.875 C161.20854568 279.2758834 159.18949291 276.2529609 157 273 C156.04753677 271.29996388 155.11165653 269.59058845 154.1875 267.875 C151.2663576 262.45417355 148.18902827 257.13990524 145.07177734 251.83007812 C138.60241155 240.78352551 132.22286229 229.68760649 125.97265625 218.515625 C122.24127917 211.76548803 122.24127917 211.76548803 118.125 205.25 C115.73012766 201.58725407 113.68785888 197.80370582 111.61328125 193.953125 C109.52740159 190.1349046 107.32538963 186.39136454 105.12109375 182.640625 C101.84118642 177.03643765 98.64603321 171.38288691 95.43896484 165.73681641 C92.465922 160.51651163 89.41743958 155.34973258 86.31469727 150.20556641 C84.80507734 147.67299327 83.38397935 145.10319925 82 142.5 C79.15811483 137.2328411 76.0989781 132.11853686 73 127 C69 120.33333333 69 120.33333333 69 118 C68.34 118 67.68 118 67 118 C66.64808594 117.26136719 66.29617188 116.52273438 65.93359375 115.76171875 C62.87897811 109.48500201 59.59629215 103.56629532 55.7109375 97.765625 C53.97859122 94.96539403 52.54606301 92.1167894 51.09814453 89.1640625 C49.14241963 85.31000614 46.93505687 81.60226979 44.75 77.875 C43.77178321 76.19681984 42.79392129 74.51843277 41.81640625 72.83984375 C41.3383252 72.01983887 40.86024414 71.19983398 40.36767578 70.35498047 C38.45433541 67.0604283 36.56960132 63.74996122 34.6875 60.4375 C31.00412349 53.97846298 27.23215438 47.57861447 23.296875 41.26953125 C22.74515625 40.37621094 22.1934375 39.48289062 21.625 38.5625 C20.87089844 37.35787109 20.87089844 37.35787109 20.1015625 36.12890625 C19 34 19 34 19 31 C18.34 31 17.68 31 17 31 C16.60167969 30.16855469 16.20335937 29.33710938 15.79296875 28.48046875 C15.26316406 27.39378906 14.73335937 26.30710937 14.1875 25.1875 C13.66542969 24.10855469 13.14335937 23.02960938 12.60546875 21.91796875 C11.19866098 19.36106995 10.04066073 17.98048039 8 16 C7.11130957 14.42582579 6.28127282 12.81765579 5.5 11.1875 C5.07332031 10.30707031 4.64664063 9.42664063 4.20703125 8.51953125 C3.80871094 7.68808594 3.41039062 6.85664063 3 6 C2.39868709 4.79024399 1.79511985 3.58160056 1.1875 2.375 C0.795625 1.59125 0.40375 0.8075 0 0 Z " fill="#FEFCFD" transform="translate(234,419)"/>
<path d="M0 0 C3.29130653 0.64330082 5.6624194 1.85624142 8.5 3.625 C12.10089083 5.83772132 15.71563818 8.01024133 19.375 10.125 C24.08455743 12.86056441 28.75586162 15.65440187 33.41918945 18.46801758 C41.19188307 23.15661664 48.97747624 27.7479248 57 32 C67.17353753 37.50181821 77.13698475 43.41805431 87.01171875 49.4375 C93.56954369 53.43106862 100.11769136 57.12070346 107.03515625 60.47265625 C111.45352238 62.74878426 115.61417886 65.40417233 119.8203125 68.046875 C123.67621414 70.41536495 127.63103061 72.55207531 131.62109375 74.68359375 C133.65953247 75.81159679 135.58025156 76.99650537 137.5 78.3125 C139.95993343 80.13589869 139.95993343 80.13589869 143 81 C144.71411133 83.52514648 144.71411133 83.52514648 146.58203125 86.87109375 C146.91869308 87.46745132 147.25535492 88.0638089 147.60221863 88.67823792 C148.68102727 90.59324991 149.74707573 92.51501501 150.8125 94.4375 C151.86630696 96.31993736 152.92270921 98.20090003 153.97941589 100.08171082 C154.67360938 101.31769397 155.36673289 102.55427868 156.05879211 103.79145813 C158.48175533 108.1140274 160.99899993 112.36920547 163.56762695 116.60620117 C166.19630752 120.99928332 168.6827184 125.47302079 171.1875 129.9375 C175.80044459 138.13056129 180.46045969 146.29338684 185.18408203 154.4230957 C187.83106763 158.97888115 190.45735371 163.54515282 193.0625 168.125 C195.85575235 173.02445472 198.69458691 177.89393728 201.5625 182.75 C211.0349026 198.79802316 220.28423472 214.97698886 229.51123047 231.16699219 C233.8846323 238.82665553 238.33318713 246.44164445 242.78710938 254.0546875 C247.08156233 261.40307888 251.31132001 268.78620876 255.51806641 276.18505859 C259.74639485 283.60122197 264.0826217 290.95140885 268.46118164 298.27978516 C271.62431327 303.59320065 274.63819249 308.96740538 277.58007812 314.40625 C279.57498589 318.05031811 281.68397012 321.62039562 283.8125 325.1875 C287.16091625 330.83374945 290.43256629 336.51418201 293.625 342.25 C296.97724995 348.26817779 300.51517917 354.13016361 304.16015625 359.9765625 C306.43840721 363.72043987 308.5165982 367.55203355 310.5859375 371.4140625 C311.91299483 373.84089111 313.30820971 376.20247456 314.75 378.5625 C317.48155594 383.05862696 320.02830709 387.64123985 322.5625 392.25 C326.96405567 400.24183094 331.57238267 408.0987427 336.23681641 415.93945312 C339.92139972 422.14345635 343.51349795 428.38985913 347.01953125 434.69628906 C349.56482373 439.26580943 352.23053368 443.74529776 355.00390625 448.1796875 C356 450 356 450 356 452 C349.88021887 450.37283412 344.76493957 447.15530625 339.375 443.9375 C338.3945874 443.35403809 337.4141748 442.77057617 336.40405273 442.16943359 C318.47547411 431.37159028 304.08444527 418.47491608 294.4296875 399.68359375 C292.90674215 396.82495042 291.2092105 394.1482931 289.4375 391.4375 C287.28457334 388.11195533 285.34187689 384.81945196 283.625 381.25 C281.21252943 376.25104458 278.39447244 371.55870357 275.51489258 366.82055664 C272.19280729 361.3493319 269.01316231 355.80786963 265.859375 350.23828125 C263.6956296 346.46990954 261.43521495 342.76849035 259.12890625 339.0859375 C258.02475612 337.04574314 257.44618968 335.2668487 257 333 C256.34 333 255.68 333 255 333 C254.63648438 332.24976563 254.27296875 331.49953125 253.8984375 330.7265625 C250.56403263 323.93805617 246.95940741 317.439598 243 311 C239 304.34567901 239 304.34567901 239 302 C238.4423999 301.72615479 237.8847998 301.45230957 237.31030273 301.17016602 C214.2636702 289.49706977 190.93181967 276.32346047 178 253 C177.34375 250.74609375 177.34375 250.74609375 177 249 C176.34 249 175.68 249 175 249 C174.70867187 248.39414062 174.41734375 247.78828125 174.1171875 247.1640625 C171.49304527 241.80024977 168.65617025 236.66549474 165.5390625 231.57421875 C163.92738863 228.87855103 162.42530297 226.14078758 160.9375 223.375 C159.21537026 220.18123211 157.45320116 217.05772706 155.5 214 C152.99493575 210.07486748 150.80295326 206.00732658 148.59375 201.91015625 C146.4232089 197.94679076 144.13532653 194.0567375 141.84765625 190.16015625 C138.86827628 185.06434569 135.95185986 179.93270826 133.02929688 174.80419922 C131.9850507 172.97379618 130.93823639 171.14488509 129.890625 169.31640625 C129.54596191 168.7136084 129.20129883 168.11081055 128.84619141 167.48974609 C128.16187878 166.29664363 127.47409691 165.10552371 126.78271484 163.91650391 C125.34112435 161.42506716 123.97627106 158.94838577 122.7734375 156.33203125 C119.50650577 149.31635413 114.7916882 147.271795 108 144 C104.99929581 142.43459965 102.02770687 140.81901255 99.0625 139.1875 C98.28793457 138.76138428 97.51336914 138.33526855 96.71533203 137.89624023 C90.00936776 134.13764972 83.98019909 129.84066509 78 125 C77.15308594 124.35160156 76.30617188 123.70320313 75.43359375 123.03515625 C63.70160647 113.22397587 54.93399589 97.45838866 48 84 C47.1028125 82.2984375 47.1028125 82.2984375 46.1875 80.5625 C45 78 45 78 45 76 C44.34 76 43.68 76 43 76 C42.56816406 75.11828125 42.13632813 74.2365625 41.69140625 73.328125 C40.2000089 70.39355101 38.61996884 67.57753976 36.9375 64.75 C33.357006 58.67077827 29.93576704 52.5103195 26.55249023 46.31933594 C24.21325028 42.06855464 21.7143833 38.02652295 19 34 C17.99688376 32.24262245 17.01680039 30.47185669 16.0625 28.6875 C15.54816406 27.73359375 15.03382812 26.7796875 14.50390625 25.796875 C14.00761719 24.87390625 13.51132813 23.9509375 13 23 C9.91337744 17.33337378 6.69379172 11.77003868 3.33203125 6.26171875 C2.12401719 4.21057464 1.03461602 2.14278294 0 0 Z " fill="#FEFCFD" transform="translate(67,322)"/>
<path d="M0 0 C-6.89715536 4.07877462 -6.89715536 4.07877462 -11.5 3.75 C-12.325 3.5025 -13.15 3.255 -14 3 C-10.22045416 0.79526493 -4.07756336 -2.03878168 0 0 Z " fill="#F2B4BA" transform="translate(829,322)"/>
</svg>
